Coordinates
version=1
nRows=10
nColumns=40
inDegrees=yes

Units are S.I. units (second, meters, Newtons, ...)
Angles are in degrees.

endheader
time	pelvis_tilt	pelvis_list	pelvis_rotation	pelvis_tx	pelvis_ty	pelvis_tz	hip_flexion_r	hip_adduction_r	hip_rotation_r	knee_angle_r	knee_angle_r_beta	ankle_angle_r	subtalar_angle_r	mtp_angle_r	hip_flexion_l	hip_adduction_l	hip_rotation_l	knee_angle_l	knee_angle_l_beta	ankle_angle_l	subtalar_angle_l	mtp_angle_l	lumbar_extension	lumbar_bending	lumbar_rotation	arm_flex_r	arm_add_r	arm_rot_r	elbow_flex_r	pro_sup_r	wrist_flex_r	wrist_dev_r	arm_flex_l	arm_add_l	arm_rot_l	elbow_flex_l	pro_sup_l	wrist_flex_l	wrist_dev_l
      0.52000000	     -2.69588351	      0.41293694	      8.25570255	     -0.17258282	      0.88339200	      1.05125248	     31.71138419	     -7.69888142	    -17.28327724	    -20.14767159	     -0.35164321	      5.95111726	     -6.04710395	     16.58437508	     -4.02585086	      0.62096902	      8.58563658	    -27.08499362	     -0.47272232	     10.29135539	      3.06180574	     -8.15513974	     -6.06247365	     -4.32737095	    -11.65162416	    -12.43981287	     -6.68660970	    -19.79840602	     16.90783431	     89.95437384	      0.00000000	      0.00000000	     -0.37434961	     14.94316539	     14.71202712	     69.66738697	     89.95437384	      0.00000000	      0.00000000
      0.53000000	     -3.00421293	      0.48964069	      8.39910475	     -0.15811352	      0.88152906	      1.05144652	     32.34030120	     -7.77510303	    -17.74590993	    -19.29482057	     -0.33675815	      5.92961484	     -5.37444547	     16.30460975	     -4.51541222	      0.73734339	      8.32480713	    -27.38863124	     -0.47802179	      9.81979247	      2.93288597	     -8.09200394	     -5.62925231	     -4.40507333	    -11.69201507	    -13.03410078	     -6.77442598	    -19.97630891	     16.65726007	     89.95437384	      0.00000000	      0.00000000	     -0.19397147	     15.11186633	     14.79370390	     71.14679937	     89.95437384	      0.00000000	      0.00000000
      0.54000000	     -3.24314542	      0.39391227	      8.85133081	     -0.14321387	      0.87979111	      1.05153068	     32.60113189	     -7.72314431	    -17.98844559	    -18.59808726	     -0.32459786	      5.66013115	     -4.00101501	     15.89694343	     -4.94490154	      1.15299360	      7.80458027	    -27.83627026	     -0.48583457	      8.98432651	      2.65420925	     -8.02646553	     -5.22413592	     -4.30358987	    -12.23172217	    -13.47628705	     -6.81418085	    -20.35578623	     16.37710975	     89.95437384	      0.00000000	      0.00000000	     -0.32256400	     15.38137807	     14.98083795	     72.69434858	     89.95437384	      0.00000000	      0.00000000
      0.55000000	     -3.25869526	      0.24619208	      9.33442249	     -0.12804247	      0.87830911	      1.05138076	     32.63153426	     -7.61874582	    -18.21862638	    -18.55810897	     -0.32390010	      5.59481578	     -2.85667996	     15.40790753	     -5.51852170	      1.66610367	      7.20689455	    -28.44703636	     -0.49649445	      8.00958692	      2.45035501	     -7.93549251	     -5.04683964	     -4.06670934	    -12.70999069	    -13.82007542	     -6.91589649	    -20.77490717	     15.99801448	     89.95437384	      0.00000000	      0.00000000	     -0.37642860	     15.49295205	     15.27786702	     74.04060843	     89.95437384	      0.00000000	      0.00000000
      0.56000000	     -2.88031194	      0.05992047	     10.05798517	     -0.11197811	      0.87752193	      1.05060298	     32.07486475	     -7.68998902	    -19.26675764	    -19.06584737	     -0.33276181	      5.74962062	     -0.82526244	     14.52630565	     -6.55079900	      2.35706082	      6.64366674	    -28.92155665	     -0.50477639	      6.87699729	      2.04562318	     -8.12654487	     -5.18607700	     -3.66121796	    -13.42290328	    -13.99239604	     -7.01759224	    -21.77051412	     15.37787881	     89.95437384	      0.00000000	      0.00000000	     -0.35817134	     15.38769578	     15.73198506	     74.95815620	     89.95437384	      0.00000000	      0.00000000
      0.57000000	     -2.89309079	      0.03204882	     10.33208051	     -0.09578626	      0.87586252	      1.05061216	     32.04741460	     -7.48108366	    -18.68880271	    -19.94713542	     -0.34814319	      5.73073822	     -0.75395165	     14.03335574	     -7.12241984	      2.67970489	      6.01334555	    -29.60882870	     -0.51677155	      5.87460145	      2.09059176	     -7.92186185	     -4.88198427	     -3.54999628	    -13.58816373	    -14.59306138	     -7.15435947	    -21.87280892	     15.35647188	     89.95437384	      0.00000000	      0.00000000	     -0.53534640	     15.58986943	     15.69141366	     75.95333522	     89.95437384	      0.00000000	      0.00000000
      0.58000000	     -2.67323845	     -0.03684108	     10.75374588	     -0.07909529	      0.87468464	      1.05050079	     31.58427795	     -7.22240118	    -18.37011444	    -21.03312160	     -0.36709722	      5.70521256	     -1.27684286	     13.60493450	     -7.87415512	      3.12778329	      5.28853423	    -30.31050762	     -0.52901816	      4.32577923	      2.44728702	     -7.68805061	     -4.78139955	     -3.36761272	    -14.01136749	    -14.83131309	     -7.27856956	    -22.17361582	     14.94389164	     89.95437384	      0.00000000	      0.00000000	     -0.83766132	     15.68372960	     15.90592381	     76.86410004	     89.95437384	      0.00000000	      0.00000000
      0.59000000	     -2.62129683	     -0.11567359	     10.93915276	     -0.06234997	      0.87316436	      1.05046236	     31.32286741	     -6.81653547	    -17.42341850	    -22.29419448	     -0.38910710	      5.02491470	     -1.35704985	     13.18241730	     -8.32938242	      3.42075709	      4.43490677	    -31.27149613	     -0.54579057	      3.22726844	      2.58730035	     -7.39774332	     -4.46916136	     -3.15255054	    -14.03319312	    -15.38138194	     -7.44703573	    -22.20810603	     15.01917386	     89.95437384	      0.00000000	      0.00000000	     -1.04755208	     15.70105008	     15.91978441	     77.45617512	     89.95437384	      0.00000000	      0.00000000
      0.60000000	     -2.33629573	     -0.29696527	     11.20677741	     -0.04558741	      0.87232437	      1.05065613	     30.59217930	     -6.10477304	    -16.35696924	    -22.93692776	     -0.40032491	      2.20332121	     -4.40227292	     13.07134380	     -8.88062121	      3.84556638	      3.49963280	    -32.26835840	     -0.56318910	      0.94470797	      4.53998926	     -7.30394113	     -4.42773086	     -2.81160272	    -14.31374221	    -15.18068087	     -7.54661768	    -23.31048269	     14.18294785	     89.95437384	      0.00000000	      0.00000000	     -1.47341588	     15.74859195	     16.17727496	     78.11268169	     89.95437384	      0.00000000	      0.00000000
      0.61000000	     -2.45202029	     -0.58229162	     11.22051020	     -0.02923020	      0.87098143	      1.05142788	     30.71350654	     -5.45835610	    -15.23441750	    -24.20982853	     -0.42254122	      0.02935739	     -6.54965992	     12.44482588	     -8.66758537	      4.38264821	      2.98948283	    -33.74789209	     -0.58901183	     -1.40809672	      5.28123612	     -7.47967276	     -3.91476235	     -2.45570877	    -14.14863533	    -15.27479973	     -7.67273482	    -23.64626203	     13.82688758	     89.95437384	      0.00000000	      0.00000000	     -1.71909736	     15.75553245	     16.17302413	     78.31902235	     89.95437384	      0.00000000	      0.00000000
